<?xml version="1.0" standalone="no"?>
<!DOCTYPE svg PUBLIC "-//W3C//DTD SVG 20010904//EN"
 "http://www.w3.org/TR/2001/REC-SVG-20010904/DTD/svg10.dtd">
<svg version="1.0" xmlns="http://www.w3.org/2000/svg"
 width="512.000000pt" height="512.000000pt" viewBox="0 0 512.000000 512.000000"
 preserveAspectRatio="xMidYMid meet">
<metadata>
Created by potrace 1.11, written by Peter Selinger 2001-2013
</metadata>
<g transform="translate(0.000000,512.000000) scale(0.100000,-0.100000)"
fill="#000000" stroke="none">
<path d="M366 4750 c-6 -11 1 -3028 7 -3070 4 -25 11 -81 17 -125 70 -572 316
-1030 690 -1286 138 -95 410 -211 548 -234 19 -3 39 -7 45 -8 9 -1 12 59 13
226 2 188 -1 242 -17 312 -34 159 -96 262 -229 384 -105 96 -165 176 -220 293
-34 74 -81 213 -95 287 -38 191 -38 188 -39 1731 l-2 1495 -358 0 c-196 1
-359 -2 -360 -5z"/>
<path d="M2023 4686 c17 -208 152 -412 327 -498 41 -20 98 -41 127 -47 33 -7
241 -11 565 -11 569 -1 651 -7 792 -57 171 -61 286 -162 361 -317 68 -140 89
-244 89 -451 0 -142 -4 -185 -22 -260 -27 -108 -86 -232 -141 -298 -132 -158
-347 -249 -607 -256 -43 -1 -80 -4 -82 -6 -3 -2 -5 -502 -2 -598 0 -17 11 -18
154 -16 611 9 1034 231 1282 674 57 103 127 317 149 455 20 130 26 363 12 510
-52 574 -359 992 -848 1153 -87 29 -243 65 -314 72 -27 3 -61 8 -75 12 -14 3
-418 7 -899 8 l-873 1 5 -70z"/>
<path d="M1405 3190 l0 -410 40 -9 c22 -5 322 -9 667 -10 l627 -1 -4 152 c-4
171 -7 196 -37 323 -24 104 -74 215 -121 266 -64 72 -41 69 -585 69 -404 0
-497 3 -538 15 -27 8 -49 15 -49 15 0 0 0 -184 0 -410z"/>
<path d="M2019 2426 c0 -55 0 -2316 0 -2338 1 -15 31 -17 365 -17 271 0 365 3
368 12 2 7 3 419 2 917 -1 901 -1 905 -23 985 -54 194 -169 342 -330 424 -69
36 -151 53 -268 55 l-113 3 -1 -41z"/>
</g>
</svg>
